<?xml version="1.0" encoding="utf-8"?>
<!-- Generator: Adobe Illustrator 17.0.0, SVG Export Plug-In . SVG Version: 6.00 Build 0)  -->
<!DOCTYPE svg PUBLIC "-//W3C//DTD SVG 1.1//EN" "http://www.w3.org/Graphics/SVG/1.1/DTD/svg11.dtd">
<svg version="1.1" id="Layer_1" xmlns="http://www.w3.org/2000/svg" xmlns:xlink="http://www.w3.org/1999/xlink" x="0px" y="0px"
	 width="1944px" height="2952px" viewBox="0 0 1944 2952" enable-background="new 0 0 1944 2952" xml:space="preserve">
<g id="background" display="none">
	<rect x="0" y="931.68" display="inline" fill="#B0BEC5" width="1944" height="1088.64"/>
</g>
<g id="label">
</g>
<g id="art">
	<g id="ic_x5F_add_x0D_">
	</g>
	<circle fill="#FFFFFF" cx="1373.76" cy="1432.8" r="34.56"/>
	<circle fill="#FFFFFF" cx="1123.2" cy="1596.96" r="34.56"/>
	<circle fill="#FFFFFF" cx="561.6" cy="1380.96" r="34.56"/>
	<circle fill="#FFFFFF" cx="751.68" cy="1216.8" r="34.56"/>
	<circle fill="#FFFFFF" cx="1062.72" cy="1173.6" r="34.56"/>
	<circle fill="#FFFFFF" cx="457.92" cy="1571.04" r="34.56"/>
	<circle fill="#FFFFFF" cx="1477.44" cy="1285.92" r="34.56"/>
	<circle fill="#FFFFFF" cx="665.28" cy="1778.4" r="34.56"/>
	<path fill="#FFFFFF" d="M669.6,1786.176l-10.368-0.864l-207.36-207.36l1.728-12.96l206.496-135.648l-101.088-38.88l-2.592-14.688
		l190.08-164.16l8.64-1.728l156.384,54.432l146.88-96.768l12.96,6.048l21.6,153.792l191.808,66.528l188.352-114.048l11.232,12.096
		l-103.68,146.88l-9.504,3.456l-84.672-29.376l-166.752,101.088l12.096,82.944l-11.232,9.504l-93.312-35.424L669.6,1786.176z
		 M471.744,1572.768l195.264,195.264l339.552-206.496l-326.592-126.144L471.744,1572.768z M1045.44,1558.08l66.528,25.92
		l-8.64-61.344L1045.44,1558.08z M697.248,1424.16l327.456,126.144l76.032-45.792l-23.328-165.024l-164.16-57.024L697.248,1424.16z
		 M1096.416,1345.536l21.6,148.608l148.608-89.856L1096.416,1345.536z M1305.504,1399.968l64.8,22.464l76.032-108L1305.504,1399.968
		z M578.016,1378.368l99.36,38.016l215.136-141.696l-139.104-48.384L578.016,1378.368z M931.392,1270.368l143.424,50.112
		l-19.008-131.328L931.392,1270.368z"/>
</g>
<g id="Guides">
</g>
</svg>
